<?xml version="1.0" encoding="utf-8"?>
<!-- Generator: Adobe Illustrator 17.0.0, SVG Export Plug-In . SVG Version: 6.00 Build 0)  -->
<!DOCTYPE svg PUBLIC "-//W3C//DTD SVG 1.1//EN" "http://www.w3.org/Graphics/SVG/1.1/DTD/svg11.dtd">
<svg version="1.1" id="Слой_1" xmlns="http://www.w3.org/2000/svg" xmlns:xlink="http://www.w3.org/1999/xlink" x="0px" y="0px"
	 width="97px" height="21.931px" viewBox="0 0 97 21.931" enable-background="new 0 0 97 21.931" xml:space="preserve">
<path fill-rule="evenodd" clip-rule="evenodd" fill="#FFFFFF" d="M85.343,21.638c0.39,0.391,1.023,0.391,1.414,0l9.9-9.9
	c0.39-0.391,0.39-1.024,0-1.414c-0.39-0.391-1.024-0.391-1.414,0l-9.899,9.9C84.952,20.614,84.952,21.247,85.343,21.638z"/>
<path fill-rule="evenodd" clip-rule="evenodd" fill="#FFFFFF" d="M85.343,0.293c0.39-0.39,1.023-0.39,1.414,0l9.9,9.9
	c0.39,0.39,0.39,1.023,0,1.414c-0.39,0.391-1.024,0.391-1.414,0l-9.899-9.899C84.952,1.317,84.952,0.683,85.343,0.293z"/>
<path fill-rule="evenodd" clip-rule="evenodd" fill="#FFFFFF" d="M0.999,9.95h95c0.552,0,1,0.448,1,1c0,0.552-0.448,1-1,1h-95
	c-0.552,0-0.999-0.448-0.999-1C0,10.398,0.448,9.95,0.999,9.95z"/>
</svg>
