<?xml version="1.0" encoding="utf-8"?>
<!-- Generator: Adobe Illustrator 17.0.0, SVG Export Plug-In . SVG Version: 6.00 Build 0)  -->
<!DOCTYPE svg PUBLIC "-//W3C//DTD SVG 1.1//EN" "http://www.w3.org/Graphics/SVG/1.1/DTD/svg11.dtd">
<svg version="1.1" id="Слой_1" xmlns="http://www.w3.org/2000/svg" xmlns:xlink="http://www.w3.org/1999/xlink" x="0px" y="0px"
	 width="42px" height="21.931px" viewBox="0 0 42 21.931" enable-background="new 0 0 42 21.931" xml:space="preserve">
<path fill-rule="evenodd" clip-rule="evenodd" fill="#DADADA" d="M11.657,21.638c-0.391,0.391-1.024,0.391-1.414,0l-9.899-9.9
	c-0.391-0.391-0.391-1.024,0-1.414c0.391-0.391,1.024-0.391,1.414,0l9.9,9.9C12.047,20.614,12.047,21.247,11.657,21.638z"/>
<path fill-rule="evenodd" clip-rule="evenodd" fill="#DADADA" d="M11.657,0.293c-0.391-0.391-1.024-0.391-1.414,0l-9.899,9.9
	c-0.391,0.391-0.391,1.023,0,1.414c0.391,0.391,1.024,0.391,1.414,0l9.9-9.899C12.047,1.317,12.047,0.683,11.657,0.293z"/>
<path fill-rule="evenodd" clip-rule="evenodd" fill="#DADADA" d="M41,9.95H1c-0.552,0-1,0.448-1,1c0,0.552,0.448,1,1,1h40
	c0.552,0,1-0.448,1-1C42,10.398,41.552,9.95,41,9.95z"/>
</svg>
