<?xml version="1.0" encoding="utf-8"?>
<!-- Generator: Adobe Illustrator 17.0.0, SVG Export Plug-In . SVG Version: 6.00 Build 0)  -->
<!DOCTYPE svg PUBLIC "-//W3C//DTD SVG 1.1//EN" "http://www.w3.org/Graphics/SVG/1.1/DTD/svg11.dtd">
<svg version="1.1" id="Слой_1" xmlns="http://www.w3.org/2000/svg" xmlns:xlink="http://www.w3.org/1999/xlink" x="0px" y="0px"
	 width="42px" height="21.931px" viewBox="0 0 42 21.931" enable-background="new 0 0 42 21.931" xml:space="preserve">
<path fill-rule="evenodd" clip-rule="evenodd" fill="#DADADA" d="M30.343,20.224l9.899-9.9c0.391-0.391,1.024-0.391,1.414,0
	c0.391,0.39,0.391,1.024,0,1.414l-9.899,9.9c-0.39,0.391-1.024,0.391-1.414,0C29.953,21.247,29.953,20.614,30.343,20.224z"/>
<path fill-rule="evenodd" clip-rule="evenodd" fill="#DADADA" d="M30.343,1.707l9.899,9.899c0.391,0.391,1.024,0.391,1.414,0
	c0.391-0.391,0.391-1.023,0-1.414l-9.899-9.9c-0.39-0.391-1.024-0.391-1.414,0C29.953,0.683,29.953,1.317,30.343,1.707z"/>
<path fill-rule="evenodd" clip-rule="evenodd" fill="#DADADA" d="M0,10.95c0,0.552,0.448,1,1,1h40c0.552,0,1-0.448,1-1
	c0-0.552-0.448-1-1-1H1C0.448,9.95,0,10.398,0,10.95z"/>
</svg>
