<?xml version="1.0" encoding="utf-8"?>
<!-- Generator: Adobe Illustrator 17.0.0, SVG Export Plug-In . SVG Version: 6.00 Build 0)  -->
<!DOCTYPE svg PUBLIC "-//W3C//DTD SVG 1.1//EN" "http://www.w3.org/Graphics/SVG/1.1/DTD/svg11.dtd">
<svg version="1.1" id="Layer_1" xmlns="http://www.w3.org/2000/svg" xmlns:xlink="http://www.w3.org/1999/xlink" x="0px" y="0px"
	 width="230.081px" height="90.36px" viewBox="0 0 230.081 90.36" enable-background="new 0 0 230.081 90.36" xml:space="preserve">
<g>
	<path fill="#939598" d="M29.184,25.283c-4.337-4.212-10.44-6.007-16.276-4.961c-2.384,0.427-4.724,1.329-6.881,2.734
		c-1.274,0.831-2.413,1.789-3.412,2.849c-0.681,0.725-1.889,1.983-1.901,4.782c-0.019,4.485-0.016,9.487,0,13.174
		c0.016,3.27,0.536,5.293,4.525,7.013c2.872,1.24,8.263,3.612,12.007,5.188c2.384,1.005,4.2,0.549,5.152,0.214
		c1.374-0.483,2.712-1.142,3.986-1.972c0.242-0.156,0.484-0.313,0.712-0.484c0.647-0.493,0.747-1.145,0.753-1.629v-3.686
		c0-0.219-0.203-0.557-0.57-0.316c-1.204,0.789-2.426,1.579-3.426,2.232c-4.566,2.975-10.217,2.934-14.647,0.399
		c-0.721-0.413-0.849-0.894-0.858-1.466c0,0,0.007-18.92,0.026-21.629c0.006-0.649,0.572-1.083,0.932-1.287
		c4.468-2.503,9.803-2.313,13.998,0.156c0.651,0.383,0.842,0.636,0.842,1.389c0.002,1.642,0.004,3.637,0.004,4.299
		c0,0.663-0.099,1.291-0.83,1.766c-0.732,0.476-11.171,7.276-11.171,7.276c-0.648,0.424-0.774,0.857-0.782,1.378
		c-0.006,0.212-0.039,2.313-0.059,3.472c-0.008,0.472,0.389,0.495,0.586,0.366c3.092-2.016,18.51-12.06,19.01-12.384
		c0.73-0.476,0.873-1.008,0.904-1.644c0.032-0.637,0.039-2.983,0.039-2.983C31.873,27.756,30.163,26.235,29.184,25.283"/>
	<path fill="#939598" d="M51.807,53.9l-6.662-2.875c-0.714-0.328-0.859-0.676-0.859-1.686L44.31,2.645
		c0.001-0.431-0.326-0.784-0.981-0.439c-0.462,0.246-0.917,0.517-1.365,0.807c-1.274,0.829-2.412,1.788-3.411,2.849
		c-0.681,0.725-1.888,1.984-1.901,4.781c-0.011,2.607-0.007,32.898,0,34.442c0.013,3.269,0.536,5.294,4.525,7.014
		c2.517,1.086,6.822,2.986,10.408,4.509c0.493,0.209,0.634-0.154,0.633-0.329v-1.71C52.218,54.284,52.137,54.058,51.807,53.9"/>
	<path fill="#939598" d="M229.669,53.9l-6.66-2.875c-0.715-0.328-0.861-0.676-0.861-1.686l0.025-46.694
		c0.001-0.431-0.327-0.784-0.979-0.439c-0.464,0.246-0.918,0.517-1.366,0.807c-1.273,0.829-2.413,1.788-3.41,2.849
		c-0.683,0.725-1.89,1.984-1.902,4.781c-0.011,2.607-0.008,32.898,0,34.442c0.015,3.269,0.536,5.294,4.525,7.014
		c2.518,1.086,6.823,2.986,10.407,4.509c0.492,0.209,0.635-0.154,0.634-0.329v-1.71C230.081,54.284,230.001,54.058,229.669,53.9"/>
	<path fill="#939598" d="M121.964,1.848c-0.099-0.148-0.26-0.258-0.514-0.366c-1.876-0.795-3.871-1.27-5.898-1.426
		c-0.784-0.061-1.571-0.073-2.36-0.033c-0.78,0.039-1.56,0.117-2.335,0.256c-0.533,0.095-1.062,0.223-1.588,0.367
		c-0.765,0.207-1.519,0.471-2.262,0.781c-1.038,0.432-2.056,0.95-3.031,1.586c-0.328,0.214-0.622,0.459-0.933,0.689
		c-0.52,0.387-1.017,0.793-1.485,1.223c-0.336,0.309-0.684,0.609-0.994,0.938c-0.062,0.065-0.132,0.141-0.203,0.216
		c-0.695,0.754-1.699,2.023-1.699,4.564c0,3.807-0.003,11.565-0.006,19.115c-0.001,3.023-0.001,6.012-0.001,8.7v1.317
		c0,4.3,0.001,7.643,0.006,8.795c0.016,3.27,0.538,5.294,4.527,7.015c0.675,0.292,1.495,0.646,2.395,1.039
		c0.152,0.065,0.444,0.112,0.604-0.088c0.064-0.08,0.108-0.196,0.111-0.373c0,0,0.01-10.941,0.01-22.432
		c0-1.133,0.359-1.754,0.56-2.102c1.999-3.446,6.148-6.026,10.009-6.822c0.591-0.122,0.778-0.494,0.417-0.983
		c-0.579-0.785-1.427-1.874-2.008-2.626c-0.362-0.47-1.028-0.556-1.479-0.407c-2.035,0.671-5.059,2.142-7.03,3.754
		c-0.163,0.133-0.465,0.124-0.464-0.162c0.003-8.477,0.007-15.592,0.01-16.598V7.693v-0.01c0.001-0.035,0.018-0.062,0.021-0.096
		c0.047-0.47,0.369-0.818,0.678-1.038c0.081-0.057,0.162-0.112,0.233-0.152c4.468-2.506,9.803-2.315,13.998,0.154
		c0.185,0.109,0.339,0.136,0.465,0.118c0.244-0.033,0.377-0.25,0.377-0.459c0-0.371,0.003-3.763,0.003-3.763
		C122.098,2.183,122.063,1.995,121.964,1.848"/>
	<path fill="#939598" d="M171.935,2.206c-0.464,0.246-0.919,0.518-1.366,0.808c-1.273,0.829-2.412,1.788-3.41,2.848
		c-0.683,0.725-1.89,1.985-1.902,4.782c-0.004,0.972-0.005,5.642-0.005,11.187c-3.49-1.646-7.439-2.195-11.276-1.509
		c-2.384,0.427-4.724,1.329-6.881,2.735c-1.274,0.83-2.413,1.789-3.411,2.848c-0.681,0.725-1.89,1.984-1.902,4.782
		c-0.02,4.485-0.017,9.487,0,13.174c0.016,3.27,0.537,5.293,4.525,7.013c2.872,1.24,8.264,3.612,12.006,5.188
		c2.385,1.005,4.2,0.549,5.153,0.214c1.373-0.483,2.712-1.142,3.986-1.971c0.242-0.157,0.481-0.314,0.711-0.485
		c0.646-0.493,0.747-1.145,0.755-1.629v-3.686c0-0.219-0.205-0.557-0.571-0.316c-1.205,0.789-2.425,1.58-3.427,2.232
		c-4.566,2.975-10.217,2.934-14.645,0.399c-0.723-0.413-0.853-0.894-0.858-1.466c0,0,0.006-18.919,0.025-21.628
		c0.005-0.65,0.572-1.083,0.932-1.288c4.469-2.503,9.803-2.313,13.999,0.156c0.65,0.383,0.841,0.636,0.841,1.389
		c0,0.468,0.004,17.558,0.004,17.558c0,0.588,0.441,0.793,0.961,0.456c3.28-2.123,5.592-3.642,5.794-3.773
		c0.727-0.474,0.873-1.006,0.903-1.643c0.011-0.214,0.039-37.936,0.039-37.936C172.915,2.215,172.587,1.861,171.935,2.206"/>
	<path fill="#939598" d="M131.901,25.283c-0.462-0.447-1.257-1.077-1.83-1.518c-0.471-0.366-0.993-0.223-1.262,0.062
		c-0.679,0.724-1.887,1.984-1.901,4.783c-0.001,0.288-0.003,0.84-0.003,1.573c-0.001,0-0.002,0-0.003-0.001v5.472v1.97v0.908
		c0.001,2.766,0.003,9.265,0.006,10.023c0.015,3.27,0.536,5.294,4.524,7.016c0.677,0.291,1.496,0.646,2.397,1.039
		c0.211,0.093,0.705,0.155,0.714-0.461v-6.13c0-0.009-0.001-0.015-0.001-0.02c0,0,0.005-9.052,0.01-18.734
		c0.008-0.836,0.011-1.737,0.011-1.737C134.591,27.756,132.881,26.235,131.901,25.283"/>
	<path fill="#939598" d="M207.047,25.283c-4.339-4.212-10.44-6.007-16.277-4.961c-2.382,0.427-4.723,1.329-6.88,2.734
		c-1.273,0.831-2.413,1.789-3.411,2.849c-0.68,0.725-1.889,1.983-1.901,4.782c-0.021,4.485-0.019,9.487,0,13.174
		c0.015,3.27,0.536,5.293,4.524,7.013c2.871,1.24,8.264,3.612,12.006,5.188c2.385,1.005,4.202,0.549,5.152,0.214
		c1.375-0.483,2.712-1.142,3.986-1.972c0.243-0.156,0.484-0.313,0.712-0.484c0.646-0.493,0.748-1.145,0.754-1.629v-3.686
		c0-0.219-0.205-0.557-0.571-0.316c-1.203,0.789-2.425,1.579-3.426,2.232c-4.566,2.975-10.217,2.934-14.644,0.399
		c-0.723-0.413-0.853-0.894-0.859-1.466c0,0,0.006-18.92,0.026-21.629c0.005-0.649,0.571-1.083,0.931-1.287
		c4.469-2.503,9.804-2.313,13.997,0.156c0.652,0.383,0.842,0.636,0.843,1.389c0.001,1.642,0.006,3.637,0.006,4.299
		c0,0.663-0.1,1.291-0.831,1.766c-0.732,0.476-11.172,7.276-11.172,7.276c-0.647,0.424-0.775,0.857-0.783,1.378
		c-0.004,0.212-0.038,2.313-0.058,3.472c-0.009,0.472,0.388,0.495,0.586,0.366c3.094-2.016,18.51-12.06,19.01-12.384
		c0.729-0.476,0.874-1.008,0.904-1.644c0.032-0.637,0.039-2.983,0.039-2.983C209.734,27.756,208.025,26.235,207.047,25.283"/>
	<path fill="#EF4123" d="M67.724,24.194h7.516c0.172,0,0.217-0.166,0.186-0.289c-0.032-0.125-3.765-11.59-3.765-11.59
		c-0.027-0.08-0.103-0.133-0.188-0.133c-0.084,0-0.16,0.053-0.186,0.133c0,0-3.72,11.447-3.758,11.565
		C67.491,23.997,67.536,24.194,67.724,24.194"/>
	<path fill="#EF4123" d="M79.29,36.826c-0.151,0.111-5.934,4.326-6.072,4.428c-0.14,0.101-0.078,0.263,0.02,0.343
		c0.099,0.083,9.871,7.147,9.871,7.147c0.069,0.049,0.16,0.047,0.23-0.004c0.067-0.049,0.098-0.137,0.072-0.217
		c0,0-3.739-11.441-3.777-11.558C79.595,36.847,79.442,36.715,79.29,36.826"/>
	<path fill="#EF4123" d="M90.531,26.026H52.414c-0.085,0-0.16,0.057-0.186,0.137c-0.027,0.078,0.001,0.17,0.071,0.218
		c0.393,0.288,9.622,6.996,10.262,7.439c0.996,0.682,1.261,1.465,0.889,2.611l-3.932,12.1c-0.016,0.029-0.026,0.061-0.026,0.096
		c0,0.107,0.089,0.195,0.198,0.195h0.004c0.04,0,0.081-0.012,0.114-0.037l30.84-22.404c0.067-0.048,0.098-0.136,0.069-0.218
		C90.691,26.083,90.616,26.026,90.531,26.026"/>
	<path fill="#EF4123" d="M16.384,73.414l-1.48,0.237c-0.122,0.02-0.211,0.124-0.211,0.247v11.665c0,0.138,0.112,0.25,0.25,0.25
		h1.481c0.138,0,0.25-0.112,0.25-0.25V73.661c0-0.073-0.032-0.143-0.088-0.19C16.53,73.423,16.455,73.403,16.384,73.414"/>
	<path fill="#EF4123" d="M35.575,73.414l-1.48,0.237c-0.122,0.02-0.211,0.124-0.211,0.247v11.665c0,0.138,0.112,0.25,0.25,0.25h1.48
		c0.139,0,0.25-0.112,0.25-0.25V73.661c0-0.073-0.032-0.143-0.088-0.19C35.721,73.423,35.645,73.403,35.575,73.414"/>
	<path fill="#EF4123" d="M44.766,75.079c0.102,0,0.193-0.063,0.231-0.156l0.384-0.943c0.031-0.077,0.023-0.164-0.024-0.233
		c-0.046-0.069-0.124-0.11-0.207-0.11h-2.685c0-1.212,0.143-2.623,0.204-3.174c0.009-0.08-0.021-0.159-0.082-0.213
		c-0.059-0.055-0.141-0.077-0.22-0.059l-1.485,0.326c-0.105,0.023-0.184,0.112-0.195,0.221c-0.054,0.562-0.178,1.968-0.178,2.898
		h-1.339c-0.138,0-0.25,0.112-0.25,0.25v0.943c0,0.138,0.112,0.25,0.25,0.25h1.339v8.361c0,1.28,0.362,2.027,1.176,2.422
		c0.5,0.236,0.989,0.342,1.587,0.342c0.752,0,1.378-0.127,1.971-0.401c0.106-0.049,0.164-0.166,0.138-0.28l-0.162-0.736
		c-0.015-0.07-0.059-0.13-0.122-0.165c-0.062-0.034-0.137-0.039-0.205-0.018c-0.264,0.093-0.544,0.133-0.936,0.133
		c-1.184,0-1.564-0.439-1.564-1.809v-7.849H44.766z"/>
	<path fill="#EF4123" d="M63.636,84.59c-0.537,0-0.685-0.263-0.685-1.223V70.923c0-1.325-0.161-2.229-0.257-2.65
		c-0.031-0.131-0.161-0.226-0.291-0.19l-1.413,0.271c-0.067,0.013-0.125,0.052-0.163,0.108c-0.037,0.058-0.048,0.127-0.034,0.193
		c0.085,0.363,0.226,1.137,0.226,2.243v12.909c0,0.845,0.181,1.381,0.581,1.729c0.37,0.346,0.857,0.521,1.449,0.521
		c0.443,0,0.67-0.04,1.011-0.179c0.12-0.049,0.182-0.184,0.143-0.308l-0.255-0.812C63.912,84.641,63.756,84.57,63.636,84.59"/>
	<path fill="#EF4123" d="M116.639,73.368c-1.316,0-2.571,0.615-3.839,1.881c0-0.703-0.22-1.366-0.351-1.699
		c-0.047-0.118-0.177-0.184-0.299-0.149l-1.37,0.379c-0.068,0.019-0.124,0.065-0.157,0.128c-0.032,0.063-0.036,0.136-0.01,0.201
		c0.131,0.352,0.354,1.118,0.354,2.315v9.14c0,0.138,0.111,0.25,0.25,0.25h1.359c0.137,0,0.25-0.112,0.25-0.25v-8.822
		c0.876-0.928,2.421-1.711,3.373-1.711c0.569,0,1.072,0.192,1.342,0.512c0.343,0.415,0.442,0.731,0.442,2.031v7.99
		c0,0.138,0.111,0.25,0.25,0.25h1.431c0.139,0,0.25-0.112,0.25-0.25v-8.994c0-0.494-0.101-0.984-0.293-1.421
		C119.127,74.066,117.956,73.368,116.639,73.368"/>
	<path fill="#EF4123" d="M131.738,83.462c-0.046-0.054-0.112-0.085-0.184-0.087c-0.06,0.011-0.139,0.027-0.188,0.078
		c-0.678,0.718-1.541,1.112-2.432,1.112c-2.485,0-3.007-2.3-3.007-4.229c0-1.834,0.224-3.138,0.686-3.987
		c0.439-0.831,1.341-1.367,2.297-1.367c0.928,0,1.445,0.276,2.129,0.819c0.109,0.088,0.266,0.069,0.352-0.04l0.739-0.929
		c0.087-0.107,0.068-0.265-0.038-0.351c-0.753-0.604-1.653-1.164-3.133-1.164c-1.283,0-2.332,0.451-3.301,1.419
		c-1.269,1.27-1.834,2.868-1.834,5.184c0,1.813,0.362,3.148,1.175,4.329c0.863,1.232,2.135,1.832,3.887,1.832
		c1.436,0,2.496-0.433,3.548-1.448c0.096-0.092,0.102-0.242,0.017-0.343L131.738,83.462z"/>
	<path fill="#EF4123" d="M144.414,73.739c-0.047-0.065-0.123-0.104-0.203-0.104h-1.643c-0.11,0-0.208,0.072-0.239,0.179
		l-2.343,7.819c-0.293,1-0.758,2.564-0.758,2.564h-0.049c-0.016-0.079-0.376-1.91-0.734-3.03l-2.416-7.654
		c-0.02-0.064-0.065-0.117-0.125-0.147c-0.06-0.031-0.129-0.036-0.193-0.015l-1.403,0.473c-0.063,0.021-0.115,0.067-0.145,0.127
		c-0.029,0.06-0.034,0.129-0.012,0.191l2.535,7.392c0.364,1.069,0.958,3.162,1.175,4.146c0.028,0.13,0.158,0.213,0.283,0.193
		l0.547-0.085c-0.628,2.348-1.202,3.167-2.56,3.657c-0.065,0.024-0.117,0.073-0.145,0.137c-0.027,0.063-0.027,0.136,0,0.198
		l0.368,0.848c0.04,0.093,0.132,0.15,0.23,0.15c0.022,0,0.046-0.003,0.068-0.01c2.048-0.588,2.97-2.23,3.725-4.516l4.071-12.288
		C144.474,73.887,144.461,73.804,144.414,73.739"/>
	<path fill="#EF4123" d="M9.839,68.246l-1.406-0.233c-0.071-0.009-0.147,0.009-0.203,0.057c-0.056,0.047-0.088,0.117-0.088,0.191
		v4.815c0,0.777,0.019,1.65,0.024,1.854v0.026c-0.736-0.979-1.939-1.54-3.301-1.54c-0.883,0-1.563,0.22-2.347,0.759
		C0.847,75.331,0,77.231,0,79.823c0,3.915,1.81,6.17,4.963,6.16c1.823-0.006,3.589-1.334,4.092-1.857
		c0.045-0.047,0.07-0.109,0.069-0.174l-0.007-1.273c-0.001-0.099-0.059-0.188-0.15-0.228c-0.091-0.039-0.197-0.021-0.269,0.045
		c-1.413,1.295-2.857,1.874-3.661,1.874c-1.157,0-1.888-0.424-2.444-1.417c-0.431-0.778-0.49-1.988-0.49-3.18
		c0-1.705,0.198-2.595,0.784-3.525c0.506-0.816,1.312-1.267,2.271-1.267c1.4,0,2.34,0.403,2.958,1.27l-0.015,4.718
		c0,0.096,0.053,0.183,0.139,0.225c0.087,0.04,0.189,0.031,0.264-0.027l1.447-1.126c0.062-0.047,0.097-0.12,0.097-0.197V68.493
		C10.048,68.371,9.96,68.266,9.839,68.246"/>
	<path fill="#EF4123" d="M105.907,74.641c-0.839-0.866-1.98-1.323-3.302-1.323c-1.485,0-2.677,0.552-3.644,1.689
		c-1.041,1.241-1.465,2.571-1.465,4.594c0,4.058,2.019,6.479,5.403,6.479c1.488,0,2.89-0.488,3.946-1.375
		c0.094-0.079,0.117-0.215,0.053-0.32l-0.472-0.787c-0.038-0.063-0.1-0.104-0.171-0.117c-0.071-0.013-0.146,0.007-0.202,0.053
		c-0.8,0.654-1.679,0.959-2.763,0.959c-1.328,0-2.405-0.53-3.032-1.492c-1.039-1.594-0.731-4.64-0.292-6.186
		c0.377-1.331,1.232-2.006,2.542-2.006c0.938,0,1.781,0.411,2.199,1.072c0.371,0.595,0.539,1.407,0.563,2.716l-3.93,0.002
		c-0.137,0-0.248,0.109-0.25,0.246l-0.014,0.938c-0.001,0.067,0.025,0.132,0.072,0.18c0.047,0.048,0.112,0.075,0.178,0.075h0.001
		l5.724-0.015c0.137,0,0.25-0.112,0.25-0.25C107.301,76.897,106.988,75.745,105.907,74.641"/>
	<path fill="#EF4123" d="M29.509,75.445c0.655,0,1.177-0.162,1.797-0.56c0.064-0.041,0.105-0.108,0.114-0.184
		c0.008-0.075-0.018-0.15-0.072-0.204l-0.817-0.817c-0.082-0.082-0.209-0.097-0.307-0.037c-0.511,0.313-0.938,0.434-1.523,0.434
		c-0.703,0-1.155-0.153-1.636-0.315c-0.54-0.182-1.099-0.37-2.079-0.37c-2.692,0-4.499,1.65-4.499,4.107
		c0,0.966,0.383,1.848,1.045,2.513c0.041,0.041,0.231,0.154,0.397,0.109c0.34-0.091,0.913-0.38,1.192-0.575
		c0.158-0.11,0.112-0.273,0.058-0.334c-0.357-0.404-0.541-0.986-0.541-1.736c0-1.672,0.773-2.52,2.299-2.52
		c1.555,0,2.248,0.754,2.248,2.444c0,3.405-6.161,2.39-6.161,5.698c0,1.102,0.859,1.76,2.297,1.76c0.14,0,0.355-0.003,0.598-0.007
		l0.248-0.004c0.379-0.007,0.779-0.014,1.038-0.014c1.246,0,1.941,0.128,2.399,0.442c0.429,0.285,0.656,0.792,0.656,1.465
		c0,1.432-0.968,2.128-2.958,2.128c-0.955,0-1.855-0.205-2.465-0.561c-0.453-0.275-0.713-0.793-0.713-1.42
		c0-0.276,0.083-0.545,0.153-0.722c0.032-0.08,0.019-0.172-0.032-0.242c-0.051-0.068-0.138-0.114-0.221-0.099l-1.4,0.119
		c-0.1,0.009-0.185,0.076-0.217,0.173c-0.132,0.414-0.19,0.754-0.19,1.136c0,2.003,1.876,3.106,5.281,3.106
		c3.122,0,4.841-1.363,4.841-3.839c0-1.116-0.427-1.932-1.344-2.567c-0.722-0.506-1.491-0.685-2.934-0.685h-1.956
		c-0.613,0-0.979-0.221-0.979-0.587c0-0.297,0.288-0.608,0.953-0.909c1.044-0.474,2.279-0.357,3.461-1.099
		c1.119-0.699,1.87-1.935,1.87-3.298c0-0.782-0.24-1.462-0.733-2.078l-0.001-0.001C28.89,75.394,29.177,75.445,29.509,75.445"/>
	<path fill="#EF4123" d="M93.842,75.445c0.655,0,1.177-0.162,1.797-0.56c0.064-0.041,0.105-0.108,0.114-0.184
		c0.008-0.075-0.018-0.15-0.072-0.204l-0.817-0.817c-0.082-0.082-0.209-0.097-0.307-0.037c-0.511,0.313-0.938,0.434-1.523,0.434
		c-0.703,0-1.155-0.153-1.636-0.315c-0.54-0.182-1.099-0.37-2.079-0.37c-2.692,0-4.499,1.65-4.499,4.107
		c0,0.966,0.383,1.848,1.045,2.513c0.041,0.041,0.231,0.154,0.397,0.109c0.34-0.091,0.913-0.38,1.192-0.575
		c0.158-0.11,0.112-0.273,0.058-0.334c-0.357-0.404-0.541-0.986-0.541-1.736c0-1.672,0.773-2.52,2.299-2.52
		c1.555,0,2.249,0.754,2.249,2.444c0,3.405-6.161,2.39-6.161,5.698c0,1.102,0.859,1.76,2.297,1.76c0.14,0,0.355-0.003,0.598-0.007
		l0.248-0.004c0.379-0.007,0.779-0.014,1.038-0.014c1.246,0,1.941,0.128,2.399,0.442c0.429,0.285,0.656,0.792,0.656,1.465
		c0,1.432-0.968,2.128-2.958,2.128c-0.955,0-1.855-0.205-2.465-0.561c-0.453-0.275-0.713-0.793-0.713-1.42
		c0-0.276,0.083-0.545,0.153-0.722c0.032-0.08,0.019-0.172-0.032-0.242c-0.051-0.068-0.138-0.114-0.221-0.099l-1.4,0.119
		c-0.1,0.009-0.185,0.076-0.217,0.173c-0.132,0.414-0.19,0.754-0.19,1.136c0,2.003,1.876,3.106,5.281,3.106
		c3.122,0,4.841-1.363,4.841-3.839c0-1.116-0.427-1.932-1.344-2.567c-0.722-0.506-1.491-0.685-2.934-0.685h-1.956
		c-0.613,0-0.979-0.221-0.979-0.587c0-0.297,0.288-0.608,0.953-0.909c1.044-0.474,2.279-0.357,3.461-1.099
		c1.119-0.699,1.87-1.935,1.87-3.298c0-0.782-0.24-1.462-0.733-2.078l-0.001-0.001C93.223,75.394,93.51,75.445,93.842,75.445"/>
	<path fill="#EF4123" d="M56.155,75.223c-0.514-1.246-1.681-1.905-3.373-1.905c-1.68,0-3.325,0.503-4.892,1.496
		c-0.057,0.036-0.097,0.095-0.111,0.162c-0.014,0.066,0.001,0.136,0.04,0.191l0.651,0.935c0.039,0.057,0.1,0.094,0.167,0.104
		c0.071,0.01,0.137-0.007,0.191-0.049c0.806-0.618,2.372-1.274,3.684-1.274c0.738,0,1.228,0.197,1.637,0.658
		c0.339,0.386,0.393,0.795,0.393,1.908l-0.02,0.856c-0.09-0.006-0.401-0.025-0.836-0.025c-4.101,0-6.455,1.596-6.455,4.377
		c0,0.814,0.282,3.473,3.912,3.473c1.311,0,3.344-1.167,4.153-2.133c0.037-0.046,0.057-0.102,0.057-0.16V83
		c0-0.098-0.056-0.186-0.144-0.227c-0.089-0.042-0.193-0.026-0.267,0.035c-0.677,0.572-2.371,1.903-3.481,1.903
		c-1.375,0-2.102-0.769-2.102-2.225c0-2.013,1.29-2.91,4.181-2.91c0.314,0,0.587,0.021,0.875,0.042
		c0.023,0.001,0.071,0.024,0.078,0.038l-0.037,1.453c-0.003,0.098,0.051,0.188,0.137,0.231c0.088,0.043,0.192,0.033,0.269-0.028
		l1.424-1.132c0.057-0.046,0.093-0.115,0.095-0.189l0.045-2.077C56.45,76.758,56.414,75.857,56.155,75.223"/>
	<path fill="#EF4123" d="M81.071,75.223c-0.514-1.246-1.68-1.905-3.373-1.905c-1.679,0-3.325,0.503-4.892,1.496
		c-0.057,0.036-0.097,0.095-0.111,0.162c-0.013,0.066,0.001,0.136,0.04,0.191l0.652,0.935c0.039,0.057,0.099,0.094,0.166,0.104
		c0.071,0.01,0.137-0.007,0.191-0.049c0.807-0.618,2.373-1.274,3.685-1.274c0.738,0,1.227,0.197,1.637,0.658
		c0.338,0.386,0.393,0.795,0.393,1.908l-0.02,0.856c-0.091-0.006-0.401-0.025-0.836-0.025c-4.102,0-6.455,1.596-6.455,4.377
		c0,0.814,0.282,3.473,3.912,3.473c1.311,0,3.343-1.167,4.152-2.133c0.038-0.046,0.058-0.102,0.058-0.16V83
		c0-0.098-0.056-0.186-0.144-0.227c-0.09-0.042-0.193-0.026-0.268,0.035c-0.677,0.572-2.37,1.903-3.48,1.903
		c-1.375,0-2.102-0.769-2.102-2.225c0-2.013,1.289-2.91,4.181-2.91c0.314,0,0.586,0.021,0.874,0.042
		c0.023,0.001,0.071,0.024,0.078,0.038l-0.036,1.453c-0.003,0.098,0.051,0.188,0.137,0.231c0.087,0.043,0.192,0.033,0.268-0.028
		l1.425-1.132c0.057-0.046,0.092-0.115,0.094-0.189l0.045-2.077C81.367,76.758,81.331,75.857,81.071,75.223"/>
</g>
</svg>
