<?xml version="1.0" encoding="utf-8"?>
<!-- Generator: Adobe Illustrator 17.0.0, SVG Export Plug-In . SVG Version: 6.00 Build 0)  -->
<!DOCTYPE svg PUBLIC "-//W3C//DTD SVG 1.1//EN" "http://www.w3.org/Graphics/SVG/1.1/DTD/svg11.dtd">
<svg version="1.1" id="Слой_1" xmlns="http://www.w3.org/2000/svg" xmlns:xlink="http://www.w3.org/1999/xlink" x="0px" y="0px"
	 width="99.62px" height="99.62px" viewBox="0 0 99.62 99.62" enable-background="new 0 0 99.62 99.62" xml:space="preserve">
<path fill-rule="evenodd" clip-rule="evenodd" fill="#D55844" d="M39.773,60.799c-0.39,0.39-1.024,0.39-1.414,0l-9.899-9.9
	c-0.391-0.391-0.391-1.024,0-1.414c0.39-0.391,1.024-0.391,1.414,0l9.899,9.9C40.163,59.775,40.163,60.408,39.773,60.799z"/>
<path fill-rule="evenodd" clip-rule="evenodd" fill="#D55844" d="M39.773,39.454c-0.39-0.39-1.024-0.39-1.414,0l-9.899,9.9
	c-0.391,0.39-0.391,1.023,0,1.414c0.39,0.39,1.024,0.39,1.414,0l9.899-9.899C40.163,40.478,40.163,39.844,39.773,39.454z"/>
<path fill-rule="evenodd" clip-rule="evenodd" fill="#D55844" d="M69.116,49.111h-40c-0.552,0-1,0.448-1,1c0,0.552,0.448,1,1,1h40
	c0.552,0,1-0.448,1-1C70.116,49.558,69.668,49.111,69.116,49.111z"/>
<path fill-rule="evenodd" clip-rule="evenodd" fill="none" stroke="#D55844" stroke-miterlimit="10" d="M49.81,0.5
	c27.233,0,49.31,22.077,49.31,49.31c0,27.233-22.077,49.31-49.31,49.31C22.577,99.12,0.5,77.043,0.5,49.81
	C0.5,22.577,22.577,0.5,49.81,0.5z"/>
</svg>
